<svg xmlns="http://www.w3.org/2000/svg" viewBox="0 0 900 560" fill="none">
  <defs>
    <linearGradient id="emerald" x1="0" y1="0" x2="1" y2="1">
      <stop offset="0%" stop-color="#10b981"/>
      <stop offset="100%" stop-color="#14b8a6"/>
    </linearGradient>
    <linearGradient id="blue" x1="0" y1="0" x2="1" y2="0">
      <stop offset="0%" stop-color="#3b82f6"/>
      <stop offset="100%" stop-color="#06b6d4"/>
    </linearGradient>
    <linearGradient id="orange" x1="0" y1="0" x2="1" y2="0">
      <stop offset="0%" stop-color="#f59e0b"/>
      <stop offset="100%" stop-color="#f97316"/>
    </linearGradient>
    <filter id="shadow" x="-4%" y="-4%" width="108%" height="112%">
      <feDropShadow dx="0" dy="2" stdDeviation="4" flood-opacity="0.08"/>
    </filter>
  </defs>

  <!-- Background -->
  <rect width="900" height="560" rx="16" fill="#fafafa"/>

  <!-- Title -->
  <text x="450" y="35" text-anchor="middle" font-family="system-ui, -apple-system, sans-serif" font-size="18" font-weight="700" fill="#111827">WellEarned — System Architecture</text>

  <!-- TOP LAYER: React SPA -->
  <rect x="40" y="55" width="820" height="130" rx="16" fill="white" stroke="#e5e7eb" stroke-width="1.5" filter="url(#shadow)"/>
  <rect x="40" y="55" width="820" height="36" rx="16" fill="url(#emerald)"/>
  <rect x="40" y="75" width="820" height="16" fill="url(#emerald)"/>
  <text x="450" y="78" text-anchor="middle" font-family="system-ui, sans-serif" font-size="14" font-weight="600" fill="white">React SPA (Vite + Tailwind CSS)</text>

  <!-- Feature boxes -->
  <rect x="60" y="105" width="115" height="60" rx="10" fill="#fff7ed" stroke="#fed7aa" stroke-width="1"/>
  <text x="117" y="130" text-anchor="middle" font-family="system-ui, sans-serif" font-size="11" font-weight="600" fill="#9a3412">Meal</text>
  <text x="117" y="148" text-anchor="middle" font-family="system-ui, sans-serif" font-size="11" font-weight="600" fill="#9a3412">Analyzer</text>

  <rect x="190" y="105" width="115" height="60" rx="10" fill="#eff6ff" stroke="#bfdbfe" stroke-width="1"/>
  <text x="247" y="130" text-anchor="middle" font-family="system-ui, sans-serif" font-size="11" font-weight="600" fill="#1e40af">Workout</text>
  <text x="247" y="148" text-anchor="middle" font-family="system-ui, sans-serif" font-size="11" font-weight="600" fill="#1e40af">Coach</text>

  <rect x="320" y="105" width="115" height="60" rx="10" fill="#ecfdf5" stroke="#a7f3d0" stroke-width="1"/>
  <text x="377" y="130" text-anchor="middle" font-family="system-ui, sans-serif" font-size="11" font-weight="600" fill="#065f46">Live</text>
  <text x="377" y="148" text-anchor="middle" font-family="system-ui, sans-serif" font-size="11" font-weight="600" fill="#065f46">Coaching</text>

  <rect x="450" y="105" width="115" height="60" rx="10" fill="#faf5ff" stroke="#e9d5ff" stroke-width="1"/>
  <text x="507" y="130" text-anchor="middle" font-family="system-ui, sans-serif" font-size="11" font-weight="600" fill="#6b21a8">Mood</text>
  <text x="507" y="148" text-anchor="middle" font-family="system-ui, sans-serif" font-size="11" font-weight="600" fill="#6b21a8">Tracker</text>

  <rect x="580" y="105" width="115" height="60" rx="10" fill="#f0fdfa" stroke="#99f6e4" stroke-width="1"/>
  <text x="637" y="130" text-anchor="middle" font-family="system-ui, sans-serif" font-size="11" font-weight="600" fill="#134e4a">Chat</text>
  <text x="637" y="148" text-anchor="middle" font-family="system-ui, sans-serif" font-size="11" font-weight="600" fill="#134e4a">Coach</text>

  <rect x="710" y="105" width="130" height="60" rx="10" fill="#fef2f2" stroke="#fecaca" stroke-width="1"/>
  <text x="775" y="130" text-anchor="middle" font-family="system-ui, sans-serif" font-size="11" font-weight="600" fill="#991b1b">AI</text>
  <text x="775" y="148" text-anchor="middle" font-family="system-ui, sans-serif" font-size="11" font-weight="600" fill="#991b1b">Insights</text>

  <!-- Arrow: SPA → Serverless -->
  <path d="M450 185 L450 230" stroke="#6b7280" stroke-width="2" stroke-dasharray="6 3" marker-end="url(#arrowhead)"/>
  <defs><marker id="arrowhead" markerWidth="8" markerHeight="6" refX="8" refY="3" orient="auto"><path d="M0 0 L8 3 L0 6 Z" fill="#6b7280"/></marker></defs>

  <!-- MIDDLE LAYER: Vercel Serverless -->
  <rect x="180" y="235" width="540" height="85" rx="16" fill="white" stroke="#e5e7eb" stroke-width="1.5" filter="url(#shadow)"/>
  <rect x="180" y="235" width="540" height="32" rx="16" fill="#111827"/>
  <rect x="180" y="251" width="540" height="16" fill="#111827"/>
  <text x="450" y="258" text-anchor="middle" font-family="system-ui, sans-serif" font-size="13" font-weight="600" fill="white">Vercel Serverless Functions</text>

  <rect x="220" y="278" width="220" height="30" rx="8" fill="#f3f4f6" stroke="#d1d5db" stroke-width="1"/>
  <text x="330" y="298" text-anchor="middle" font-family="monospace" font-size="12" font-weight="600" fill="#374151">/api/gemini</text>

  <rect x="460" y="278" width="220" height="30" rx="8" fill="#f3f4f6" stroke="#d1d5db" stroke-width="1"/>
  <text x="570" y="298" text-anchor="middle" font-family="monospace" font-size="12" font-weight="600" fill="#374151">/api/gemini-stream</text>

  <!-- Arrows: Serverless → Bottom -->
  <path d="M350 320 L280 370" stroke="#6b7280" stroke-width="2" stroke-dasharray="6 3" marker-end="url(#arrowhead)"/>
  <path d="M550 320 L620 370" stroke="#6b7280" stroke-width="2" stroke-dasharray="6 3" marker-end="url(#arrowhead)"/>

  <!-- BOTTOM LEFT: Gemini 3 -->
  <rect x="40" y="375" width="420" height="165" rx="16" fill="white" stroke="#e5e7eb" stroke-width="1.5" filter="url(#shadow)"/>
  <rect x="40" y="375" width="420" height="36" rx="16" fill="url(#blue)"/>
  <rect x="40" y="395" width="420" height="16" fill="url(#blue)"/>
  <text x="250" y="398" text-anchor="middle" font-family="system-ui, sans-serif" font-size="14" font-weight="600" fill="white">Google Gemini 3 (Pro + Flash)</text>

  <!-- Capability badges -->
  <rect x="60" y="425" width="115" height="28" rx="14" fill="#dbeafe" stroke="#93c5fd" stroke-width="1"/>
  <text x="117" y="444" text-anchor="middle" font-family="system-ui, sans-serif" font-size="10" font-weight="600" fill="#1e40af">Vision</text>

  <rect x="185" y="425" width="115" height="28" rx="14" fill="#dbeafe" stroke="#93c5fd" stroke-width="1"/>
  <text x="242" y="444" text-anchor="middle" font-family="system-ui, sans-serif" font-size="10" font-weight="600" fill="#1e40af">Video</text>

  <rect x="310" y="425" width="115" height="28" rx="14" fill="#dbeafe" stroke="#93c5fd" stroke-width="1"/>
  <text x="367" y="444" text-anchor="middle" font-family="system-ui, sans-serif" font-size="10" font-weight="600" fill="#1e40af">Audio NLU</text>

  <rect x="60" y="465" width="115" height="28" rx="14" fill="#dbeafe" stroke="#93c5fd" stroke-width="1"/>
  <text x="117" y="484" text-anchor="middle" font-family="system-ui, sans-serif" font-size="10" font-weight="600" fill="#1e40af">Streaming</text>

  <rect x="185" y="465" width="115" height="28" rx="14" fill="#dbeafe" stroke="#93c5fd" stroke-width="1"/>
  <text x="242" y="484" text-anchor="middle" font-family="system-ui, sans-serif" font-size="10" font-weight="600" fill="#1e40af">Structured Output</text>

  <rect x="310" y="465" width="115" height="28" rx="14" fill="#dbeafe" stroke="#93c5fd" stroke-width="1"/>
  <text x="367" y="484" text-anchor="middle" font-family="system-ui, sans-serif" font-size="10" font-weight="600" fill="#1e40af">Function Calling</text>

  <!-- Model labels -->
  <rect x="100" y="505" width="70" height="24" rx="12" fill="#ecfdf5" stroke="#6ee7b7" stroke-width="1"/>
  <text x="135" y="521" text-anchor="middle" font-family="system-ui, sans-serif" font-size="10" font-weight="700" fill="#059669">Flash</text>

  <rect x="190" y="505" width="70" height="24" rx="12" fill="#fef3c7" stroke="#fcd34d" stroke-width="1"/>
  <text x="225" y="521" text-anchor="middle" font-family="system-ui, sans-serif" font-size="10" font-weight="700" fill="#b45309">Pro</text>

  <text x="290" y="521" font-family="system-ui, sans-serif" font-size="10" fill="#6b7280">Speed vs. Reasoning Power</text>

  <!-- BOTTOM RIGHT: Firebase -->
  <rect x="490" y="375" width="370" height="165" rx="16" fill="white" stroke="#e5e7eb" stroke-width="1.5" filter="url(#shadow)"/>
  <rect x="490" y="375" width="370" height="36" rx="16" fill="url(#orange)"/>
  <rect x="490" y="395" width="370" height="16" fill="url(#orange)"/>
  <text x="675" y="398" text-anchor="middle" font-family="system-ui, sans-serif" font-size="14" font-weight="600" fill="white">Firebase</text>

  <rect x="520" y="430" width="140" height="90" rx="12" fill="#fff7ed" stroke="#fed7aa" stroke-width="1"/>
  <text x="590" y="465" text-anchor="middle" font-family="system-ui, sans-serif" font-size="20">🔐</text>
  <text x="590" y="488" text-anchor="middle" font-family="system-ui, sans-serif" font-size="12" font-weight="600" fill="#9a3412">Auth</text>
  <text x="590" y="505" text-anchor="middle" font-family="system-ui, sans-serif" font-size="9" fill="#b45309">Email / Google / Anon</text>

  <rect x="680" y="430" width="150" height="90" rx="12" fill="#fff7ed" stroke="#fed7aa" stroke-width="1"/>
  <text x="755" y="465" text-anchor="middle" font-family="system-ui, sans-serif" font-size="20">🗄️</text>
  <text x="755" y="488" text-anchor="middle" font-family="system-ui, sans-serif" font-size="12" font-weight="600" fill="#9a3412">Firestore</text>
  <text x="755" y="505" text-anchor="middle" font-family="system-ui, sans-serif" font-size="9" fill="#b45309">Real-time Sync</text>
</svg>
